<svg id="visual" viewBox="0 0 900 600" width="900" height="600" xmlns="http://www.w3.org/2000/svg" xmlns:xlink="http://www.w3.org/1999/xlink" version="1.1"><rect width="900" height="600" fill="#128d43"></rect><g><g transform="translate(303 473)"><path d="M0 -26.7L23.1 -13.3L23.1 13.3L0 26.7L-23.1 13.3L-23.1 -13.3Z" fill="none" stroke="#0f461a" stroke-width="1"></path></g><g transform="translate(437 372)"><path d="M0 -16L13.9 -8L13.9 8L0 16L-13.9 8L-13.9 -8Z" fill="none" stroke="#0f461a" stroke-width="1"></path></g><g transform="translate(809 360)"><path d="M0 -9L7.8 -4.5L7.8 4.5L0 9L-7.8 4.5L-7.8 -4.5Z" fill="none" stroke="#0f461a" stroke-width="1"></path></g><g transform="translate(396 528)"><path d="M0 -11L9.5 -5.5L9.5 5.5L0 11L-9.5 5.5L-9.5 -5.5Z" stroke="#0f461a" fill="none" stroke-width="1"></path></g><g transform="translate(9 147)"><path d="M0 -18L15.6 -9L15.6 9L0 18L-15.6 9L-15.6 -9Z" stroke="#0f461a" fill="none" stroke-width="1"></path></g><g transform="translate(346 133)"><path d="M0 -6L5.2 -3L5.2 3L0 6L-5.2 3L-5.2 -3Z" stroke="#0f461a" fill="none" stroke-width="1"></path></g><g transform="translate(235 256)"><path d="M0 -12L10.4 -6L10.4 6L0 12L-10.4 6L-10.4 -6Z" stroke="#0f461a" fill="none" stroke-width="1"></path></g><g transform="translate(207 591)"><path d="M0 -7L6.1 -3.5L6.1 3.5L0 7L-6.1 3.5L-6.1 -3.5Z" stroke="#0f461a" fill="none" stroke-width="1"></path></g><g transform="translate(643 441)"><path d="M0 -7L6.1 -3.5L6.1 3.5L0 7L-6.1 3.5L-6.1 -3.5Z" stroke="#0f461a" fill="none" stroke-width="1"></path></g><g transform="translate(253 424)"><path d="M0 -18L15.6 -9L15.6 9L0 18L-15.6 9L-15.6 -9Z" stroke="#0f461a" fill="none" stroke-width="1"></path></g><g transform="translate(695 494)"><path d="M0 -11L9.5 -5.5L9.5 5.5L0 11L-9.5 5.5L-9.5 -5.5Z" stroke="#0f461a" fill="none" stroke-width="1"></path></g><g transform="translate(16 474)"><path d="M0 -20L17.3 -10L17.3 10L0 20L-17.3 10L-17.3 -10Z" stroke="#0f461a" fill="none" stroke-width="1"></path></g><g transform="translate(89 246)"><path d="M0 -8L6.9 -4L6.9 4L0 8L-6.9 4L-6.9 -4Z" stroke="#0f461a" fill="none" stroke-width="1"></path></g><g transform="translate(874 396)"><path d="M0 -6L5.2 -3L5.2 3L0 6L-5.2 3L-5.2 -3Z" stroke="#0f461a" fill="none" stroke-width="1"></path></g><g transform="translate(615 319)"><path d="M0 -20L17.3 -10L17.3 10L0 20L-17.3 10L-17.3 -10Z" stroke="#0f461a" fill="none" stroke-width="1"></path></g><g transform="translate(729 232)"><path d="M0 -7L6.1 -3.5L6.1 3.5L0 7L-6.1 3.5L-6.1 -3.5Z" stroke="#0f461a" fill="none" stroke-width="1"></path></g><g transform="translate(44 365)"><path d="M0 -24L20.8 -12L20.8 12L0 24L-20.8 12L-20.8 -12Z" stroke="#0f461a" fill="none" stroke-width="1"></path></g><g transform="translate(636 233)"><path d="M0 -7L6.1 -3.5L6.1 3.5L0 7L-6.1 3.5L-6.1 -3.5Z" stroke="#0f461a" fill="none" stroke-width="1"></path></g><g transform="translate(496 26)"><path d="M0 -14L12.1 -7L12.1 7L0 14L-12.1 7L-12.1 -7Z" stroke="#0f461a" fill="none" stroke-width="1"></path></g><g transform="translate(595 114)"><path d="M0 -17L14.7 -8.5L14.7 8.5L0 17L-14.7 8.5L-14.7 -8.5Z" stroke="#0f461a" fill="none" stroke-width="1"></path></g><g transform="translate(761 18)"><path d="M0 -9L7.8 -4.5L7.8 4.5L0 9L-7.8 4.5L-7.8 -4.5Z" stroke="#0f461a" fill="none" stroke-width="1"></path></g><g transform="translate(399 63)"><path d="M0 -18L15.6 -9L15.6 9L0 18L-15.6 9L-15.6 -9Z" stroke="#0f461a" fill="none" stroke-width="1"></path></g><g transform="translate(324 397)"><path d="M0 -10L8.7 -5L8.7 5L0 10L-8.7 5L-8.7 -5Z" stroke="#0f461a" fill="none" stroke-width="1"></path></g><g transform="translate(653 69)"><path d="M0 -17L14.7 -8.5L14.7 8.5L0 17L-14.7 8.5L-14.7 -8.5Z" stroke="#0f461a" fill="none" stroke-width="1"></path></g><g transform="translate(788 468)"><path d="M0 -8L6.9 -4L6.9 4L0 8L-6.9 4L-6.9 -4Z" stroke="#0f461a" fill="none" stroke-width="1"></path></g><g transform="translate(515 510)"><path d="M0 -8L6.9 -4L6.9 4L0 8L-6.9 4L-6.9 -4Z" stroke="#0f461a" fill="none" stroke-width="1"></path></g><g transform="translate(602 576)"><path d="M0 -7L6.1 -3.5L6.1 3.5L0 7L-6.1 3.5L-6.1 -3.5Z" stroke="#0f461a" fill="none" stroke-width="1"></path></g><g transform="translate(729 392)"><path d="M0 -22L19.1 -11L19.1 11L0 22L-19.1 11L-19.1 -11Z" stroke="#0f461a" fill="none" stroke-width="1"></path></g><g transform="translate(520 315)"><path d="M0 -12L10.4 -6L10.4 6L0 12L-10.4 6L-10.4 -6Z" stroke="#0f461a" fill="none" stroke-width="1"></path></g><g transform="translate(895 512)"><path d="M0 -22L19.1 -11L19.1 11L0 22L-19.1 11L-19.1 -11Z" stroke="#0f461a" fill="none" stroke-width="1"></path></g><g transform="translate(98 377)"><path d="M0 -12L10.4 -6L10.4 6L0 12L-10.4 6L-10.4 -6Z" stroke="#0f461a" fill="none" stroke-width="1"></path></g><g transform="translate(343 555)"><path d="M0 -21L18.2 -10.5L18.2 10.5L0 21L-18.2 10.5L-18.2 -10.5Z" stroke="#0f461a" fill="none" stroke-width="1"></path></g><g transform="translate(239 163)"><path d="M0 -19L16.5 -9.5L16.5 9.5L0 19L-16.5 9.5L-16.5 -9.5Z" stroke="#0f461a" fill="none" stroke-width="1"></path></g><g transform="translate(678 122)"><path d="M0 -9L7.8 -4.5L7.8 4.5L0 9L-7.8 4.5L-7.8 -4.5Z" stroke="#0f461a" fill="none" stroke-width="1"></path></g><g transform="translate(448 156)"><path d="M0 -22L19.1 -11L19.1 11L0 22L-19.1 11L-19.1 -11Z" stroke="#0f461a" fill="none" stroke-width="1"></path></g><g transform="translate(821 127)"><path d="M0 -13L11.3 -6.5L11.3 6.5L0 13L-11.3 6.5L-11.3 -6.5Z" stroke="#0f461a" fill="none" stroke-width="1"></path></g><g transform="translate(392 178)"><path d="M0 -16L13.9 -8L13.9 8L0 16L-13.9 8L-13.9 -8Z" stroke="#0f461a" fill="none" stroke-width="1"></path></g><g transform="translate(265 541)"><path d="M0 -23L19.9 -11.5L19.9 11.5L0 23L-19.9 11.5L-19.9 -11.5Z" stroke="#0f461a" fill="none" stroke-width="1"></path></g><g transform="translate(202 298)"><path d="M0 -20L17.3 -10L17.3 10L0 20L-17.3 10L-17.3 -10Z" stroke="#0f461a" fill="none" stroke-width="1"></path></g><g transform="translate(286 195)"><path d="M0 -11L9.5 -5.5L9.5 5.5L0 11L-9.5 5.5L-9.5 -5.5Z" stroke="#0f461a" fill="none" stroke-width="1"></path></g><g transform="translate(507 118)"><path d="M0 -10L8.7 -5L8.7 5L0 10L-8.7 5L-8.7 -5Z" stroke="#0f461a" fill="none" stroke-width="1"></path></g><g transform="translate(332 233)"><path d="M0 -24L20.8 -12L20.8 12L0 24L-20.8 12L-20.8 -12Z" stroke="#0f461a" fill="none" stroke-width="1"></path></g><g transform="translate(442 290)"><path d="M0 -6L5.2 -3L5.2 3L0 6L-5.2 3L-5.2 -3Z" stroke="#0f461a" fill="none" stroke-width="1"></path></g><g transform="translate(323 304)"><path d="M0 -19L16.5 -9.5L16.5 9.5L0 19L-16.5 9.5L-16.5 -9.5Z" stroke="#0f461a" fill="none" stroke-width="1"></path></g><g transform="translate(746 555)"><path d="M0 -13L11.3 -6.5L11.3 6.5L0 13L-11.3 6.5L-11.3 -6.5Z" stroke="#0f461a" fill="none" stroke-width="1"></path></g><g transform="translate(390 595)"><path d="M0 -8L6.9 -4L6.9 4L0 8L-6.9 4L-6.9 -4Z" stroke="#0f461a" fill="none" stroke-width="1"></path></g><g transform="translate(243 56)"><path d="M0 -20L17.3 -10L17.3 10L0 20L-17.3 10L-17.3 -10Z" stroke="#0f461a" fill="none" stroke-width="1"></path></g><g transform="translate(237 367)"><path d="M0 -17L14.7 -8.5L14.7 8.5L0 17L-14.7 8.5L-14.7 -8.5Z" stroke="#0f461a" fill="none" stroke-width="1"></path></g><g transform="translate(155 537)"><path d="M0 -14L12.1 -7L12.1 7L0 14L-12.1 7L-12.1 -7Z" stroke="#0f461a" fill="none" stroke-width="1"></path></g><g transform="translate(720 446)"><path d="M0 -9L7.8 -4.5L7.8 4.5L0 9L-7.8 4.5L-7.8 -4.5Z" stroke="#0f461a" fill="none" stroke-width="1"></path></g><g transform="translate(174 158)"><path d="M0 -16L13.9 -8L13.9 8L0 16L-13.9 8L-13.9 -8Z" stroke="#0f461a" fill="none" stroke-width="1"></path></g><g transform="translate(549 270)"><path d="M0 -16L13.9 -8L13.9 8L0 16L-13.9 8L-13.9 -8Z" stroke="#0f461a" fill="none" stroke-width="1"></path></g><g transform="translate(878 52)"><path d="M0 -18L15.6 -9L15.6 9L0 18L-15.6 9L-15.6 -9Z" stroke="#0f461a" fill="none" stroke-width="1"></path></g><g transform="translate(378 314)"><path d="M0 -21L18.2 -10.5L18.2 10.5L0 21L-18.2 10.5L-18.2 -10.5Z" stroke="#0f461a" fill="none" stroke-width="1"></path></g><g transform="translate(55 201)"><path d="M0 -23L19.9 -11.5L19.9 11.5L0 23L-19.9 11.5L-19.9 -11.5Z" stroke="#0f461a" fill="none" stroke-width="1"></path></g><g transform="translate(819 17)"><path d="M0 -11L9.5 -5.5L9.5 5.5L0 11L-9.5 5.5L-9.5 -5.5Z" stroke="#0f461a" fill="none" stroke-width="1"></path></g><g transform="translate(421 476)"><path d="M0 -15L13 -7.5L13 7.5L0 15L-13 7.5L-13 -7.5Z" stroke="#0f461a" fill="none" stroke-width="1"></path></g><g transform="translate(101 549)"><path d="M0 -8L6.9 -4L6.9 4L0 8L-6.9 4L-6.9 -4Z" stroke="#0f461a" fill="none" stroke-width="1"></path></g><g transform="translate(163 460)"><path d="M0 -12L10.4 -6L10.4 6L0 12L-10.4 6L-10.4 -6Z" stroke="#0f461a" fill="none" stroke-width="1"></path></g><g transform="translate(581 201)"><path d="M0 -25L21.7 -12.5L21.7 12.5L0 25L-21.7 12.5L-21.7 -12.5Z" stroke="#0f461a" fill="none" stroke-width="1"></path></g><g transform="translate(15 240)"><path d="M0 -18L15.6 -9L15.6 9L0 18L-15.6 9L-15.6 -9Z" stroke="#0f461a" fill="none" stroke-width="1"></path></g><g transform="translate(798 528)"><path d="M0 -24L20.8 -12L20.8 12L0 24L-20.8 12L-20.8 -12Z" stroke="#0f461a" fill="none" stroke-width="1"></path></g><g transform="translate(784 184)"><path d="M0 -13L11.3 -6.5L11.3 6.5L0 13L-11.3 6.5L-11.3 -6.5Z" stroke="#0f461a" fill="none" stroke-width="1"></path></g><g transform="translate(636 524)"><path d="M0 -18L15.6 -9L15.6 9L0 18L-15.6 9L-15.6 -9Z" stroke="#0f461a" fill="none" stroke-width="1"></path></g><g transform="translate(699 175)"><path d="M0 -10L8.7 -5L8.7 5L0 10L-8.7 5L-8.7 -5Z" stroke="#0f461a" fill="none" stroke-width="1"></path></g><g transform="translate(767 109)"><path d="M0 -14L12.1 -7L12.1 7L0 14L-12.1 7L-12.1 -7Z" stroke="#0f461a" fill="none" stroke-width="1"></path></g><g transform="translate(92 154)"><path d="M0 -10L8.7 -5L8.7 5L0 10L-8.7 5L-8.7 -5Z" stroke="#0f461a" fill="none" stroke-width="1"></path></g><g transform="translate(881 165)"><path d="M0 -21L18.2 -10.5L18.2 10.5L0 21L-18.2 10.5L-18.2 -10.5Z" stroke="#0f461a" fill="none" stroke-width="1"></path></g><g transform="translate(183 10)"><path d="M0 -22L19.1 -11L19.1 11L0 22L-19.1 11L-19.1 -11Z" stroke="#0f461a" fill="none" stroke-width="1"></path></g><g transform="translate(522 444)"><path d="M0 -25L21.7 -12.5L21.7 12.5L0 25L-21.7 12.5L-21.7 -12.5Z" stroke="#0f461a" fill="none" stroke-width="1"></path></g><g transform="translate(176 97)"><path d="M0 -16L13.9 -8L13.9 8L0 16L-13.9 8L-13.9 -8Z" stroke="#0f461a" fill="none" stroke-width="1"></path></g><g transform="translate(768 296)"><path d="M0 -18L15.6 -9L15.6 9L0 18L-15.6 9L-15.6 -9Z" stroke="#0f461a" fill="none" stroke-width="1"></path></g><g transform="translate(107 79)"><path d="M0 -22L19.1 -11L19.1 11L0 22L-19.1 11L-19.1 -11Z" stroke="#0f461a" fill="none" stroke-width="1"></path></g><g transform="translate(112 480)"><path d="M0 -9L7.8 -4.5L7.8 4.5L0 9L-7.8 4.5L-7.8 -4.5Z" stroke="#0f461a" fill="none" stroke-width="1"></path></g><g transform="translate(42 66)"><path d="M0 -25L21.7 -12.5L21.7 12.5L0 25L-21.7 12.5L-21.7 -12.5Z" stroke="#0f461a" fill="none" stroke-width="1"></path></g><g transform="translate(588 9)"><path d="M0 -16L13.9 -8L13.9 8L0 16L-13.9 8L-13.9 -8Z" stroke="#0f461a" fill="none" stroke-width="1"></path></g><g transform="translate(289 104)"><path d="M0 -21L18.2 -10.5L18.2 10.5L0 21L-18.2 10.5L-18.2 -10.5Z" stroke="#0f461a" fill="none" stroke-width="1"></path></g><g transform="translate(12 554)"><path d="M0 -22L19.1 -11L19.1 11L0 22L-19.1 11L-19.1 -11Z" stroke="#0f461a" fill="none" stroke-width="1"></path></g><g transform="translate(302 11)"><path d="M0 -23L19.9 -11.5L19.9 11.5L0 23L-19.9 11.5L-19.9 -11.5Z" stroke="#0f461a" fill="none" stroke-width="1"></path></g><g transform="translate(670 279)"><path d="M0 -9L7.8 -4.5L7.8 4.5L0 9L-7.8 4.5L-7.8 -4.5Z" stroke="#0f461a" fill="none" stroke-width="1"></path></g><g transform="translate(78 298)"><path d="M0 -22L19.1 -11L19.1 11L0 22L-19.1 11L-19.1 -11Z" stroke="#0f461a" fill="none" stroke-width="1"></path></g><g transform="translate(645 374)"><path d="M0 -25L21.7 -12.5L21.7 12.5L0 25L-21.7 12.5L-21.7 -12.5Z" stroke="#0f461a" fill="none" stroke-width="1"></path></g><g transform="translate(462 228)"><path d="M0 -20L17.3 -10L17.3 10L0 20L-17.3 10L-17.3 -10Z" stroke="#0f461a" fill="none" stroke-width="1"></path></g><g transform="translate(337 73)"><path d="M0 -13L11.3 -6.5L11.3 6.5L0 13L-11.3 6.5L-11.3 -6.5Z" stroke="#0f461a" fill="none" stroke-width="1"></path></g><g transform="translate(871 284)"><path d="M0 -25L21.7 -12.5L21.7 12.5L0 25L-21.7 12.5L-21.7 -12.5Z" stroke="#0f461a" fill="none" stroke-width="1"></path></g><g transform="translate(386 425)"><path d="M0 -6L5.2 -3L5.2 3L0 6L-5.2 3L-5.2 -3Z" stroke="#0f461a" fill="none" stroke-width="1"></path></g><g transform="translate(584 445)"><path d="M0 -21L18.2 -10.5L18.2 10.5L0 21L-18.2 10.5L-18.2 -10.5Z" stroke="#0f461a" fill="none" stroke-width="1"></path></g><g transform="translate(16 306)"><path d="M0 -22L19.1 -11L19.1 11L0 22L-19.1 11L-19.1 -11Z" stroke="#0f461a" fill="none" stroke-width="1"></path></g><g transform="translate(462 88)"><path d="M0 -15L13 -7.5L13 7.5L0 15L-13 7.5L-13 -7.5Z" stroke="#0f461a" fill="none" stroke-width="1"></path></g><g transform="translate(552 389)"><path d="M0 -11L9.5 -5.5L9.5 5.5L0 11L-9.5 5.5L-9.5 -5.5Z" stroke="#0f461a" fill="none" stroke-width="1"></path></g><g transform="translate(250 487)"><path d="M0 -7L6.1 -3.5L6.1 3.5L0 7L-6.1 3.5L-6.1 -3.5Z" stroke="#0f461a" fill="none" stroke-width="1"></path></g><g transform="translate(527 219)"><path d="M0 -22L19.1 -11L19.1 11L0 22L-19.1 11L-19.1 -11Z" stroke="#0f461a" fill="none" stroke-width="1"></path></g><g transform="translate(859 228)"><path d="M0 -6L5.2 -3L5.2 3L0 6L-5.2 3L-5.2 -3Z" stroke="#0f461a" fill="none" stroke-width="1"></path></g><g transform="translate(720 338)"><path d="M0 -16L13.9 -8L13.9 8L0 16L-13.9 8L-13.9 -8Z" stroke="#0f461a" fill="none" stroke-width="1"></path></g><g transform="translate(356 8)"><path d="M0 -16L13.9 -8L13.9 8L0 16L-13.9 8L-13.9 -8Z" stroke="#0f461a" fill="none" stroke-width="1"></path></g><g transform="translate(682 22)"><path d="M0 -18L15.6 -9L15.6 9L0 18L-15.6 9L-15.6 -9Z" stroke="#0f461a" fill="none" stroke-width="1"></path></g><g transform="translate(198 409)"><path d="M0 -16L13.9 -8L13.9 8L0 16L-13.9 8L-13.9 -8Z" stroke="#0f461a" fill="none" stroke-width="1"></path></g><g transform="translate(164 260)"><path d="M0 -20L17.3 -10L17.3 10L0 20L-17.3 10L-17.3 -10Z" stroke="#0f461a" fill="none" stroke-width="1"></path></g><g transform="translate(500 579)"><path d="M0 -21L18.2 -10.5L18.2 10.5L0 21L-18.2 10.5L-18.2 -10.5Z" stroke="#0f461a" fill="none" stroke-width="1"></path></g><g transform="translate(870 450)"><path d="M0 -8L6.9 -4L6.9 4L0 8L-6.9 4L-6.9 -4Z" stroke="#0f461a" fill="none" stroke-width="1"></path></g><g transform="translate(685 552)"><path d="M0 -14L12.1 -7L12.1 7L0 14L-12.1 7L-12.1 -7Z" stroke="#0f461a" fill="none" stroke-width="1"></path></g><g transform="translate(415 8)"><path d="M0 -9L7.8 -4.5L7.8 4.5L0 9L-7.8 4.5L-7.8 -4.5Z" stroke="#0f461a" fill="none" stroke-width="1"></path></g><g transform="translate(69 594)"><path d="M0 -8L6.9 -4L6.9 4L0 8L-6.9 4L-6.9 -4Z" stroke="#0f461a" fill="none" stroke-width="1"></path></g><g transform="translate(890 587)"><path d="M0 -21L18.2 -10.5L18.2 10.5L0 21L-18.2 10.5L-18.2 -10.5Z" stroke="#0f461a" fill="none" stroke-width="1"></path></g><g transform="translate(468 427)"><path d="M0 -21L18.2 -10.5L18.2 10.5L0 21L-18.2 10.5L-18.2 -10.5Z" stroke="#0f461a" fill="none" stroke-width="1"></path></g><g transform="translate(68 8)"><path d="M0 -19L16.5 -9.5L16.5 9.5L0 19L-16.5 9.5L-16.5 -9.5Z" stroke="#0f461a" fill="none" stroke-width="1"></path></g><g transform="translate(168 346)"><path d="M0 -8L6.9 -4L6.9 4L0 8L-6.9 4L-6.9 -4Z" stroke="#0f461a" fill="none" stroke-width="1"></path></g><g transform="translate(452 552)"><path d="M0 -9L7.8 -4.5L7.8 4.5L0 9L-7.8 4.5L-7.8 -4.5Z" stroke="#0f461a" fill="none" stroke-width="1"></path></g><g transform="translate(559 68)"><path d="M0 -13L11.3 -6.5L11.3 6.5L0 13L-11.3 6.5L-11.3 -6.5Z" stroke="#0f461a" fill="none" stroke-width="1"></path></g><g transform="translate(13 19)"><path d="M0 -10L8.7 -5L8.7 5L0 10L-8.7 5L-8.7 -5Z" stroke="#0f461a" fill="none" stroke-width="1"></path></g><g transform="translate(60 429)"><path d="M0 -16L13.9 -8L13.9 8L0 16L-13.9 8L-13.9 -8Z" stroke="#0f461a" fill="none" stroke-width="1"></path></g><g transform="translate(890 105)"><path d="M0 -16L13.9 -8L13.9 8L0 16L-13.9 8L-13.9 -8Z" stroke="#0f461a" fill="none" stroke-width="1"></path></g><g transform="translate(404 237)"><path d="M0 -25L21.7 -12.5L21.7 12.5L0 25L-21.7 12.5L-21.7 -12.5Z" stroke="#0f461a" fill="none" stroke-width="1"></path></g><g transform="translate(643 169)"><path d="M0 -18L15.6 -9L15.6 9L0 18L-15.6 9L-15.6 -9Z" stroke="#0f461a" fill="none" stroke-width="1"></path></g><g transform="translate(129 15)"><path d="M0 -20L17.3 -10L17.3 10L0 20L-17.3 10L-17.3 -10Z" stroke="#0f461a" fill="none" stroke-width="1"></path></g><g transform="translate(360 484)"><path d="M0 -11L9.5 -5.5L9.5 5.5L0 11L-9.5 5.5L-9.5 -5.5Z" stroke="#0f461a" fill="none" stroke-width="1"></path></g><g transform="translate(286 596)"><path d="M0 -7L6.1 -3.5L6.1 3.5L0 7L-6.1 3.5L-6.1 -3.5Z" stroke="#0f461a" fill="none" stroke-width="1"></path></g><g transform="translate(841 495)"><path d="M0 -24L20.8 -12L20.8 12L0 24L-20.8 12L-20.8 -12Z" stroke="#0f461a" fill="none" stroke-width="1"></path></g><g transform="translate(132 306)"><path d="M0 -15L13 -7.5L13 7.5L0 15L-13 7.5L-13 -7.5Z" stroke="#0f461a" fill="none" stroke-width="1"></path></g><g transform="translate(802 252)"><path d="M0 -8L6.9 -4L6.9 4L0 8L-6.9 4L-6.9 -4Z" stroke="#0f461a" fill="none" stroke-width="1"></path></g><g transform="translate(579 512)"><path d="M0 -16L13.9 -8L13.9 8L0 16L-13.9 8L-13.9 -8Z" stroke="#0f461a" fill="none" stroke-width="1"></path></g><g transform="translate(825 73)"><path d="M0 -21L18.2 -10.5L18.2 10.5L0 21L-18.2 10.5L-18.2 -10.5Z" stroke="#0f461a" fill="none" stroke-width="1"></path></g><g transform="translate(715 79)"><path d="M0 -12L10.4 -6L10.4 6L0 12L-10.4 6L-10.4 -6Z" stroke="#0f461a" fill="none" stroke-width="1"></path></g><g transform="translate(211 527)"><path d="M0 -14L12.1 -7L12.1 7L0 14L-12.1 7L-12.1 -7Z" stroke="#0f461a" fill="none" stroke-width="1"></path></g><g transform="translate(204 212)"><path d="M0 -13L11.3 -6.5L11.3 6.5L0 13L-11.3 6.5L-11.3 -6.5Z" stroke="#0f461a" fill="none" stroke-width="1"></path></g><g transform="translate(812 598)"><path d="M0 -21L18.2 -10.5L18.2 10.5L0 21L-18.2 10.5L-18.2 -10.5Z" stroke="#0f461a" fill="none" stroke-width="1"></path></g><g transform="translate(374 370)"><path d="M0 -6L5.2 -3L5.2 3L0 6L-5.2 3L-5.2 -3Z" stroke="#0f461a" fill="none" stroke-width="1"></path></g><g transform="translate(144 593)"><path d="M0 -19L16.5 -9.5L16.5 9.5L0 19L-16.5 9.5L-16.5 -9.5Z" stroke="#0f461a" fill="none" stroke-width="1"></path></g><g transform="translate(130 197)"><path d="M0 -14L12.1 -7L12.1 7L0 14L-12.1 7L-12.1 -7Z" stroke="#0f461a" fill="none" stroke-width="1"></path></g><g transform="translate(550 598)"><path d="M0 -21L18.2 -10.5L18.2 10.5L0 21L-18.2 10.5L-18.2 -10.5Z" stroke="#0f461a" fill="none" stroke-width="1"></path></g><g transform="translate(268 310)"><path d="M0 -7L6.1 -3.5L6.1 3.5L0 7L-6.1 3.5L-6.1 -3.5Z" stroke="#0f461a" fill="none" stroke-width="1"></path></g><g transform="translate(884 340)"><path d="M0 -15L13 -7.5L13 7.5L0 15L-13 7.5L-13 -7.5Z" stroke="#0f461a" fill="none" stroke-width="1"></path></g><g transform="translate(401 117)"><path d="M0 -16L13.9 -8L13.9 8L0 16L-13.9 8L-13.9 -8Z" stroke="#0f461a" fill="none" stroke-width="1"></path></g><g transform="translate(492 363)"><path d="M0 -23L19.9 -11.5L19.9 11.5L0 23L-19.9 11.5L-19.9 -11.5Z" stroke="#0f461a" fill="none" stroke-width="1"></path></g><g transform="translate(539 162)"><path d="M0 -21L18.2 -10.5L18.2 10.5L0 21L-18.2 10.5L-18.2 -10.5Z" stroke="#0f461a" fill="none" stroke-width="1"></path></g><g transform="translate(62 509)"><path d="M0 -20L17.3 -10L17.3 10L0 20L-17.3 10L-17.3 -10Z" stroke="#0f461a" fill="none" stroke-width="1"></path></g><g transform="translate(238 1)"><path d="M0 -18L15.6 -9L15.6 9L0 18L-15.6 9L-15.6 -9Z" stroke="#0f461a" fill="none" stroke-width="1"></path></g><g transform="translate(5 413)"><path d="M0 -6L5.2 -3L5.2 3L0 6L-5.2 3L-5.2 -3Z" stroke="#0f461a" fill="none" stroke-width="1"></path></g><g transform="translate(820 415)"><path d="M0 -22L19.1 -11L19.1 11L0 22L-19.1 11L-19.1 -11Z" stroke="#0f461a" fill="none" stroke-width="1"></path></g></g></svg>